<svg xmlns="http://www.w3.org/2000/svg" viewBox="0 0 220 220" role="img" aria-label="Sello abstracto de Maldición">
  <g fill="none" stroke-linecap="round" stroke-linejoin="round">
    <path d="M42 118C32 76 58 37 98 31c38-6 74 13 87 48 13 36-1 77-31 97-30 21-74 16-98-10" stroke="#16130f" stroke-width="7"/>
    <path d="M55 137c26 13 58 7 78-15 19-21 23-52 9-77" stroke="#8a211f" stroke-width="6"/>
    <path d="M78 73c17-16 44-17 62-2m-67 75c13 12 31 17 48 13" stroke="#16130f" stroke-width="5"/>
    <path d="M108 58c-4 28-5 55 3 84m-31-31c22-8 43-7 64 3" stroke="#16130f" stroke-width="4"/>
    <path d="M91 92l35 36m2-38-39 39" stroke="#8a211f" stroke-width="4"/>
  </g>
</svg>